<svg xmlns="http://www.w3.org/2000/svg" viewBox="0 0 240 240" role="img" aria-label="Illustration de Bordeaux">
  <defs>
    <linearGradient id="bordeauxBg" x1="0" y1="0" x2="1" y2="1">
      <stop offset="0%" stop-color="#ffe5cc"/>
      <stop offset="100%" stop-color="#c97b48"/>
    </linearGradient>
  </defs>
  <rect width="240" height="240" rx="36" fill="url(#bordeauxBg)"/>
  <circle cx="178" cy="56" r="18" fill="#fff7ee" opacity="0.78"/>
  <path d="M46 174c18-50 45-82 74-94 28 12 54 44 74 94H46z" fill="#6b2a0d" opacity="0.16"/>
  <path d="M78 166h84" stroke="#fff4ea" stroke-width="8" stroke-linecap="round" opacity="0.75"/>
  <path d="M116 68l12 16h-7v30h-10V84h-7l12-16z" fill="#733111"/>
  <rect x="98" y="114" width="44" height="56" rx="10" fill="#8c3b16"/>
  <rect x="114" y="128" width="12" height="42" rx="4" fill="#ffd9b8" opacity="0.92"/>
  <path d="M52 186c20-14 43-21 68-21 26 0 49 7 68 21" stroke="#6c2c0d" stroke-width="10" stroke-linecap="round" fill="none" opacity="0.78"/>
  <path d="M64 192h112" stroke="#fff4ea" stroke-width="6" stroke-linecap="round" opacity="0.58"/>
</svg>